# xmcd CD database file
#
# Track frame offsets:
#	150
#	11475
#	22587
#	34725
#	47612
#	59925
#	71925
#	92625
#	105450
#	115575
#	135075
#	146775
#	168300
#	178200
#	190425
#	205500
#	217162
#	229362
#
# Disc length: 3308 seconds
#
# Revision: 5
# Processed by: cddbd v1.5.2PL0 Copyright (c) Steve Scherf et al.
# Submitted via: CDex 1.51
#
DISCID=010cea12
DTITLE=Various Artist - Hallo Trucker!
DYEAR=1900
DGENRE=Country
TTITLE0=Tom Astor - Highway Helden
TTITLE1=Jonny Hill - Ich fahr meine Tour
TTITLE2=Tom Astor - Trucker sind Partner
TTITLE3=Tom Astor - Buchstabiere Lkw
TTITLE4=Tom Astor - Truckstop Mama
TTITLE5=Tom Astor - Radwechsel
TTITLE6=Gunter Gabriel - Er ist ein Kerl
TTITLE7=Dä Drüjje Piter - Sie ist Truckerfan
TTITLE8=Peter Held - Gib Gas
TTITLE9=Tom Astor - Daddy, wenn ich groß bin, fahr ich Diesel
TTITLE10=Tom Astor - 14 Tage auf dem Brenner
TTITLE11=Jonny Hill - Ruf Teddybär eins-vier
TTITLE12=Tom Astor - Ihr Leben, das ist ihr Laster
TTITLE13=Tom Astor - Ich bin wieder auf der Autobahn
TTITLE14=Tom Astor - Halt Abstand Junge
TTITLE15=Jonny Hill - Mehr hinterm Lenkrad, als zuhaus
TTITLE16=Tom Astor - Junge, zieh die Bremse an
TTITLE17=Tom Astor - Meine Antwort ist die große Autobahn
EXTD=
EXTT0=
EXTT1=
EXTT2=
EXTT3=
EXTT4=
EXTT5=
EXTT6=Gunther Gabriel
EXTT7=Dä Drüjje Piter
EXTT8=Peter Held
EXTT9=
EXTT10=
EXTT11=Johnny Hill
EXTT12=
EXTT13=
EXTT14=
EXTT15=Johnny Hill
EXTT16=
EXTT17=
PLAYORDER=
